<?xml version="1.0" encoding="UTF-8" standalone="no"?>
<svg width="32" height="32" viewBox="0 0 32 32" fill="none" xmlns="http://www.w3.org/2000/svg">
  <!-- 背景円 -->
  <circle cx="16" cy="16" r="16" fill="#FBF0DF" />
  
  <!-- Hono ロゴ (簡略化) -->
  <g transform="translate(6, 8) scale(0.02)">
    <path d="M141.5 238.5V161H0V238.5H141.5Z" fill="#E15241"/>
    <path d="M141.5 0V77.5H0V0H141.5Z" fill="#E15241"/>
    <path d="M0 77.5H141.5V161H0V77.5Z" fill="#E15241"/>
    <path d="M176.5 0H318V77.5H176.5V0Z" fill="#E15241"/>
    <path d="M176.5 77.5H318V161H176.5V77.5Z" fill="#E15241"/>
    <path d="M176.5 161H318V238.5H176.5V161Z" fill="#E15241"/>
    <path d="M353 0H494.5V77.5H353V0Z" fill="#E15241"/>
    <path d="M353 77.5H494.5V161H353V77.5Z" fill="#E15241"/>
    <path d="M353 161H494.5V238.5H353V161Z" fill="#E15241"/>
    <path d="M529.5 0H671V77.5H529.5V0Z" fill="#E15241"/>
    <path d="M529.5 77.5H671V161H529.5V77.5Z" fill="#E15241"/>
    <path d="M529.5 161H671V238.5H529.5V161Z" fill="#E15241"/>
    <path d="M706 0H847.5V77.5H706V0Z" fill="#E15241"/>
    <path d="M706 77.5H847.5V161H706V77.5Z" fill="#E15241"/>
    <path d="M706 161H847.5V238.5H706V161Z" fill="#E15241"/>
    <path d="M882.5 0H1024V77.5H882.5V0Z" fill="#E15241"/>
    <path d="M882.5 77.5H1024V161H882.5V77.5Z" fill="#E15241"/>
    <path d="M882.5 161H1024V238.5H882.5V161Z" fill="#E15241"/>
  </g>
  
  <!-- Bun ロゴ (簡略化) -->
  <g transform="translate(16, 16)">
    <path d="M10 0C10 5.52285 5.52285 10 0 10C-5.52285 10 -10 5.52285 -10 0C-10 -5.52285 -5.52285 -10 0 -10C5.52285 -10 10 -5.52285 10 0Z" fill="#FBF0DF"/>
    <path d="M0 -6C3.31371 -6 6 -3.31371 6 0C6 3.31371 3.31371 6 0 6C-3.31371 6 -6 3.31371 -6 0C-6 -3.31371 -3.31371 -6 0 -6Z" fill="#FFB74D"/>
    <path d="M0 -3C1.65685 -3 3 -1.65685 3 0C3 1.65685 1.65685 3 0 3C-1.65685 3 -3 1.65685 -3 0C-3 -1.65685 -1.65685 -3 0 -3Z" fill="#FB923C"/>
  </g>
</svg> 